<mxfile host="app.diagrams.net" modified="2021-07-15T12:32:23.088Z" agent="5.0 (Windows NT 10.0; Win64; x64) AppleWebKit/537.36 (KHTML, like Gecko) Chrome/91.0.4472.124 Safari/537.36" etag="o-XWCm8Tt-SjRXXh9Nkm" version="14.7.8" type="github">
  <diagram id="_XJO0J99vWzrOxl8445-" name="第 1 页">
    <mxGraphModel dx="1022" dy="475" grid="0" gridSize="10" guides="1" tooltips="1" connect="1" arrows="1" fold="1" page="0" pageScale="1" pageWidth="850" pageHeight="1100" background="none" math="0" shadow="0">
      <root>
        <mxCell id="0" />
        <mxCell id="1" parent="0" />
        <mxCell id="DkgCfpx4we4KzXeQwORl-1" value="&lt;div style=&quot;font-size: 15px&quot;&gt;ResourceManager&lt;br style=&quot;font-size: 15px&quot;&gt;&lt;/div&gt;&lt;div style=&quot;font-size: 15px&quot;&gt;yarn.scheduler.maximum-allocation-mb=8192&lt;/div&gt;&lt;div style=&quot;font-size: 15px&quot;&gt;yarn.scheduler.minimum-allocation-mb=1024&lt;/div&gt;" style="rounded=1;whiteSpace=wrap;html=1;fontSize=15;fillColor=#fff2cc;strokeColor=#d6b656;" parent="1" vertex="1">
          <mxGeometry x="250" y="100" width="340" height="80" as="geometry" />
        </mxCell>
        <mxCell id="DkgCfpx4we4KzXeQwORl-2" value="&lt;div style=&quot;font-size: 15px&quot;&gt;NodeManager&lt;br style=&quot;font-size: 15px&quot;&gt;&lt;/div&gt;&lt;div&gt;yarn.nodemanager.resource.memory-mb=24576&lt;br&gt;&lt;/div&gt;" style="rounded=1;whiteSpace=wrap;html=1;fontSize=15;shadow=0;sketch=0;glass=0;fillColor=#fff2cc;strokeColor=#d6b656;" parent="1" vertex="1">
          <mxGeometry x="250" y="190" width="340" height="70" as="geometry" />
        </mxCell>
        <mxCell id="DkgCfpx4we4KzXeQwORl-3" value="" style="rounded=0;whiteSpace=wrap;html=1;fontSize=14;" parent="1" vertex="1">
          <mxGeometry x="90" y="290" width="200" height="80" as="geometry" />
        </mxCell>
        <mxCell id="DkgCfpx4we4KzXeQwORl-4" value="max heap&lt;br&gt;2048M" style="whiteSpace=wrap;html=1;aspect=fixed;fontSize=14;fillColor=#dae8fc;strokeColor=#6c8ebf;" parent="1" vertex="1">
          <mxGeometry x="90" y="290" width="80" height="80" as="geometry" />
        </mxCell>
        <mxCell id="DkgCfpx4we4KzXeQwORl-5" value="max virtual&lt;br&gt;3225.6M" style="whiteSpace=wrap;html=1;aspect=fixed;fontSize=14;strokeColor=none;" parent="1" vertex="1">
          <mxGeometry x="200" y="290" width="80" height="80" as="geometry" />
        </mxCell>
        <mxCell id="DkgCfpx4we4KzXeQwORl-12" style="edgeStyle=orthogonalEdgeStyle;rounded=0;orthogonalLoop=1;jettySize=auto;html=1;fontSize=14;" parent="1" edge="1">
          <mxGeometry relative="1" as="geometry">
            <mxPoint x="175" y="492" as="targetPoint" />
            <mxPoint x="175" y="462" as="sourcePoint" />
          </mxGeometry>
        </mxCell>
        <mxCell id="DkgCfpx4we4KzXeQwORl-6" value="map JVM&lt;br&gt;-Xmx1024M" style="whiteSpace=wrap;html=1;aspect=fixed;fontSize=14;fillColor=#f8cecc;strokeColor=#b85450;" parent="1" vertex="1">
          <mxGeometry x="130" y="370" width="90" height="90" as="geometry" />
        </mxCell>
        <mxCell id="DkgCfpx4we4KzXeQwORl-7" value="" style="rounded=0;whiteSpace=wrap;html=1;fontSize=14;" parent="1" vertex="1">
          <mxGeometry x="320" y="290" width="200" height="80" as="geometry" />
        </mxCell>
        <mxCell id="DkgCfpx4we4KzXeQwORl-8" value="max heap&lt;br&gt;3072M" style="whiteSpace=wrap;html=1;aspect=fixed;fontSize=14;fillColor=#dae8fc;strokeColor=#6c8ebf;" parent="1" vertex="1">
          <mxGeometry x="320" y="290" width="80" height="80" as="geometry" />
        </mxCell>
        <mxCell id="DkgCfpx4we4KzXeQwORl-9" value="max virtual&lt;br&gt;3225.6M" style="whiteSpace=wrap;html=1;aspect=fixed;fontSize=14;strokeColor=none;" parent="1" vertex="1">
          <mxGeometry x="430" y="290" width="80" height="80" as="geometry" />
        </mxCell>
        <mxCell id="DkgCfpx4we4KzXeQwORl-10" value="reduce JVM&lt;br&gt;-Xmx2560M" style="whiteSpace=wrap;html=1;aspect=fixed;fontSize=14;fillColor=#f8cecc;strokeColor=#b85450;" parent="1" vertex="1">
          <mxGeometry x="360" y="370" width="90" height="90" as="geometry" />
        </mxCell>
        <mxCell id="DkgCfpx4we4KzXeQwORl-13" value="mapreduce.map.memory.mb=1536&lt;br&gt;2048M allocated" style="shape=document;whiteSpace=wrap;html=1;boundedLbl=1;rounded=0;fontSize=14;fillColor=#b0e3e6;strokeColor=#0e8088;" parent="1" vertex="1">
          <mxGeometry x="9" y="500" width="265" height="50" as="geometry" />
        </mxCell>
        <mxCell id="DkgCfpx4we4KzXeQwORl-18" value="mapreduce.map.java.opts=-Xmx1024M" style="shape=document;whiteSpace=wrap;html=1;boundedLbl=1;rounded=0;fontSize=14;fillColor=#b0e3e6;strokeColor=#0e8088;" parent="1" vertex="1">
          <mxGeometry x="9" y="551" width="265" height="50" as="geometry" />
        </mxCell>
        <mxCell id="DkgCfpx4we4KzXeQwORl-19" value="yarn.nodemanager.vmem-pmem-ratio=2.1&lt;br&gt;2048 * 2.1 = 3225.6" style="shape=document;whiteSpace=wrap;html=1;boundedLbl=1;rounded=0;fontSize=14;fillColor=#b0e3e6;strokeColor=#0e8088;" parent="1" vertex="1">
          <mxGeometry x="9" y="602" width="265" height="50" as="geometry" />
        </mxCell>
        <mxCell id="DkgCfpx4we4KzXeQwORl-20" value="" style="rounded=0;whiteSpace=wrap;html=1;fontSize=14;" parent="1" vertex="1">
          <mxGeometry x="550" y="290" width="200" height="80" as="geometry" />
        </mxCell>
        <mxCell id="DkgCfpx4we4KzXeQwORl-21" value="max heap&lt;br&gt;2048M" style="whiteSpace=wrap;html=1;aspect=fixed;fontSize=14;fillColor=#dae8fc;strokeColor=#6c8ebf;" parent="1" vertex="1">
          <mxGeometry x="550" y="290" width="80" height="80" as="geometry" />
        </mxCell>
        <mxCell id="DkgCfpx4we4KzXeQwORl-22" value="max virtual&lt;br&gt;3225.6M" style="whiteSpace=wrap;html=1;aspect=fixed;fontSize=14;strokeColor=none;" parent="1" vertex="1">
          <mxGeometry x="660" y="290" width="80" height="80" as="geometry" />
        </mxCell>
        <mxCell id="DkgCfpx4we4KzXeQwORl-23" value="map JVM&lt;br&gt;-Xmx1024M" style="whiteSpace=wrap;html=1;aspect=fixed;fontSize=14;fillColor=#f8cecc;strokeColor=#b85450;" parent="1" vertex="1">
          <mxGeometry x="590" y="370" width="90" height="90" as="geometry" />
        </mxCell>
        <mxCell id="DkgCfpx4we4KzXeQwORl-24" value="mapreduce.reduce.memory.mb=3072&lt;br&gt;3072M allocated" style="shape=document;whiteSpace=wrap;html=1;boundedLbl=1;rounded=0;fontSize=14;fillColor=#b0e3e6;strokeColor=#0e8088;" parent="1" vertex="1">
          <mxGeometry x="286" y="500" width="265" height="50" as="geometry" />
        </mxCell>
        <mxCell id="DkgCfpx4we4KzXeQwORl-25" value="mapreduce.reduce.java.opts=-Xmx2560M" style="shape=document;whiteSpace=wrap;html=1;boundedLbl=1;rounded=0;fontSize=14;fillColor=#b0e3e6;strokeColor=#0e8088;" parent="1" vertex="1">
          <mxGeometry x="286" y="550" width="265" height="50" as="geometry" />
        </mxCell>
        <mxCell id="DkgCfpx4we4KzXeQwORl-26" value="yarn.nodemanager.vmem-pmem-ratio=2.1&lt;br&gt;3072* 2.1 = 6451.2" style="shape=document;whiteSpace=wrap;html=1;boundedLbl=1;rounded=0;fontSize=14;fillColor=#b0e3e6;strokeColor=#0e8088;" parent="1" vertex="1">
          <mxGeometry x="286" y="602" width="265" height="50" as="geometry" />
        </mxCell>
        <mxCell id="DkgCfpx4we4KzXeQwORl-27" value="&lt;div&gt;yarn.app.mapreduce.am.resource.mb=1536&lt;/div&gt;&lt;div&gt;2048M allocated&lt;/div&gt;" style="shape=document;whiteSpace=wrap;html=1;boundedLbl=1;rounded=0;fontSize=14;fillColor=#b0e3e6;strokeColor=#0e8088;" parent="1" vertex="1">
          <mxGeometry x="561" y="500" width="279" height="50" as="geometry" />
        </mxCell>
        <mxCell id="DkgCfpx4we4KzXeQwORl-29" value="yarn.nodemanager.vmem-pmem-ratio=2.1&lt;br&gt;2048 * 2.1 = 3225.6" style="shape=document;whiteSpace=wrap;html=1;boundedLbl=1;rounded=0;fontSize=14;fillColor=#b0e3e6;strokeColor=#0e8088;" parent="1" vertex="1">
          <mxGeometry x="560.5" y="560" width="279" height="50" as="geometry" />
        </mxCell>
        <mxCell id="DkgCfpx4we4KzXeQwORl-31" style="edgeStyle=orthogonalEdgeStyle;rounded=0;orthogonalLoop=1;jettySize=auto;html=1;fontSize=14;" parent="1" edge="1">
          <mxGeometry relative="1" as="geometry">
            <mxPoint x="404" y="493" as="targetPoint" />
            <mxPoint x="404" y="463" as="sourcePoint" />
          </mxGeometry>
        </mxCell>
        <mxCell id="DkgCfpx4we4KzXeQwORl-32" style="edgeStyle=orthogonalEdgeStyle;rounded=0;orthogonalLoop=1;jettySize=auto;html=1;fontSize=14;" parent="1" edge="1">
          <mxGeometry relative="1" as="geometry">
            <mxPoint x="639.5" y="493" as="targetPoint" />
            <mxPoint x="639.5" y="463" as="sourcePoint" />
          </mxGeometry>
        </mxCell>
      </root>
    </mxGraphModel>
  </diagram>
</mxfile>
